<mxfile host="app.diagrams.net" modified="2023-10-16T03:41:21.285Z" agent="Mozilla/5.0 (Windows NT 10.0; Win64; x64) AppleWebKit/537.36 (KHTML, like Gecko) Chrome/117.0.0.0 Safari/537.36" etag="GAYQGY2b6Pwiz3sqLI5n" version="22.0.4" type="github">
  <diagram id="R2lEEEUBdFMjLlhIrx00" name="Page-1">
    <mxGraphModel dx="1600" dy="404" grid="1" gridSize="10" guides="1" tooltips="1" connect="1" arrows="1" fold="1" page="1" pageScale="1" pageWidth="850" pageHeight="1100" math="0" shadow="0" extFonts="Permanent Marker^https://fonts.googleapis.com/css?family=Permanent+Marker">
      <root>
        <mxCell id="0" />
        <mxCell id="1" parent="0" />
        <mxCell id="7Bm5uX8iUBSCOyA4L_OL-2" value="Paciente" style="rounded=0;whiteSpace=wrap;html=1;" vertex="1" parent="1">
          <mxGeometry x="110" y="170" width="120" height="60" as="geometry" />
        </mxCell>
        <mxCell id="7Bm5uX8iUBSCOyA4L_OL-3" value="ID" style="ellipse;whiteSpace=wrap;html=1;aspect=fixed;labelBackgroundColor=none;fontColor=#030303;fontStyle=4" vertex="1" parent="1">
          <mxGeometry x="10" y="150" width="30" height="30" as="geometry" />
        </mxCell>
        <mxCell id="7Bm5uX8iUBSCOyA4L_OL-4" value="" style="endArrow=none;html=1;rounded=0;entryX=0.5;entryY=1;entryDx=0;entryDy=0;exitX=0.029;exitY=0.003;exitDx=0;exitDy=0;exitPerimeter=0;" edge="1" parent="1" source="7Bm5uX8iUBSCOyA4L_OL-2" target="7Bm5uX8iUBSCOyA4L_OL-3">
          <mxGeometry width="50" height="50" relative="1" as="geometry">
            <mxPoint x="130" y="180" as="sourcePoint" />
            <mxPoint x="220" y="90" as="targetPoint" />
          </mxGeometry>
        </mxCell>
        <mxCell id="7Bm5uX8iUBSCOyA4L_OL-5" value="nombre" style="ellipse;whiteSpace=wrap;html=1;fontSize=10;" vertex="1" parent="1">
          <mxGeometry x="-10" y="100" width="50" height="30" as="geometry" />
        </mxCell>
        <mxCell id="7Bm5uX8iUBSCOyA4L_OL-6" value="" style="endArrow=none;html=1;rounded=0;entryX=0.5;entryY=1;entryDx=0;entryDy=0;exitX=0;exitY=0;exitDx=0;exitDy=0;" edge="1" parent="1" source="7Bm5uX8iUBSCOyA4L_OL-2" target="7Bm5uX8iUBSCOyA4L_OL-5">
          <mxGeometry width="50" height="50" relative="1" as="geometry">
            <mxPoint x="170" y="140" as="sourcePoint" />
            <mxPoint x="220" y="90" as="targetPoint" />
          </mxGeometry>
        </mxCell>
        <mxCell id="7Bm5uX8iUBSCOyA4L_OL-7" value="direccion" style="ellipse;whiteSpace=wrap;html=1;fontSize=10;" vertex="1" parent="1">
          <mxGeometry x="-10" y="55" width="50" height="30" as="geometry" />
        </mxCell>
        <mxCell id="7Bm5uX8iUBSCOyA4L_OL-8" value="fechaN" style="ellipse;whiteSpace=wrap;html=1;fontSize=10;" vertex="1" parent="1">
          <mxGeometry x="-10" width="50" height="30" as="geometry" />
        </mxCell>
        <mxCell id="7Bm5uX8iUBSCOyA4L_OL-9" value="" style="endArrow=none;html=1;rounded=0;entryX=0.69;entryY=0.946;entryDx=0;entryDy=0;entryPerimeter=0;exitX=0;exitY=0;exitDx=0;exitDy=0;" edge="1" parent="1" source="7Bm5uX8iUBSCOyA4L_OL-2" target="7Bm5uX8iUBSCOyA4L_OL-7">
          <mxGeometry width="50" height="50" relative="1" as="geometry">
            <mxPoint x="200" y="170" as="sourcePoint" />
            <mxPoint x="220" y="90" as="targetPoint" />
          </mxGeometry>
        </mxCell>
        <mxCell id="7Bm5uX8iUBSCOyA4L_OL-10" value="" style="endArrow=none;html=1;rounded=0;exitX=0;exitY=0;exitDx=0;exitDy=0;" edge="1" parent="1" source="7Bm5uX8iUBSCOyA4L_OL-2" target="7Bm5uX8iUBSCOyA4L_OL-8">
          <mxGeometry width="50" height="50" relative="1" as="geometry">
            <mxPoint x="230" y="170" as="sourcePoint" />
            <mxPoint x="290" y="90" as="targetPoint" />
          </mxGeometry>
        </mxCell>
        <mxCell id="7Bm5uX8iUBSCOyA4L_OL-11" value="género" style="ellipse;whiteSpace=wrap;html=1;fontSize=10;" vertex="1" parent="1">
          <mxGeometry x="120" width="50" height="30" as="geometry" />
        </mxCell>
        <mxCell id="7Bm5uX8iUBSCOyA4L_OL-12" value="" style="endArrow=none;html=1;rounded=0;entryX=0.746;entryY=0.972;entryDx=0;entryDy=0;entryPerimeter=0;exitX=0.391;exitY=-0.003;exitDx=0;exitDy=0;exitPerimeter=0;" edge="1" parent="1" source="7Bm5uX8iUBSCOyA4L_OL-2" target="7Bm5uX8iUBSCOyA4L_OL-11">
          <mxGeometry width="50" height="50" relative="1" as="geometry">
            <mxPoint x="170" y="180" as="sourcePoint" />
            <mxPoint x="340" y="90" as="targetPoint" />
          </mxGeometry>
        </mxCell>
        <mxCell id="7Bm5uX8iUBSCOyA4L_OL-13" value="teléfono" style="ellipse;whiteSpace=wrap;html=1;fontSize=10;" vertex="1" parent="1">
          <mxGeometry x="60" width="50" height="30" as="geometry" />
        </mxCell>
        <mxCell id="7Bm5uX8iUBSCOyA4L_OL-16" value="" style="endArrow=none;html=1;rounded=0;entryX=0.101;entryY=0.764;entryDx=0;entryDy=0;entryPerimeter=0;exitX=1.001;exitY=0.098;exitDx=0;exitDy=0;exitPerimeter=0;" edge="1" parent="1" source="7Bm5uX8iUBSCOyA4L_OL-2" target="7Bm5uX8iUBSCOyA4L_OL-20">
          <mxGeometry width="50" height="50" relative="1" as="geometry">
            <mxPoint x="270" y="180" as="sourcePoint" />
            <mxPoint x="302.35" y="158.70999999999998" as="targetPoint" />
          </mxGeometry>
        </mxCell>
        <mxCell id="7Bm5uX8iUBSCOyA4L_OL-17" value="" style="endArrow=none;html=1;rounded=0;entryX=0.302;entryY=0.932;entryDx=0;entryDy=0;entryPerimeter=0;" edge="1" parent="1" source="7Bm5uX8iUBSCOyA4L_OL-2" target="7Bm5uX8iUBSCOyA4L_OL-13">
          <mxGeometry width="50" height="50" relative="1" as="geometry">
            <mxPoint x="250" y="180" as="sourcePoint" />
            <mxPoint x="300" y="120" as="targetPoint" />
          </mxGeometry>
        </mxCell>
        <mxCell id="7Bm5uX8iUBSCOyA4L_OL-20" value="historialM" style="ellipse;shape=doubleEllipse;whiteSpace=wrap;html=1;fontSize=10;" vertex="1" parent="1">
          <mxGeometry x="280" y="130" width="60" height="40" as="geometry" />
        </mxCell>
        <mxCell id="7Bm5uX8iUBSCOyA4L_OL-21" value="alergias " style="ellipse;shape=doubleEllipse;whiteSpace=wrap;html=1;fontSize=10;" vertex="1" parent="1">
          <mxGeometry x="330" y="80" width="60" height="40" as="geometry" />
        </mxCell>
        <mxCell id="7Bm5uX8iUBSCOyA4L_OL-24" value="" style="edgeStyle=isometricEdgeStyle;endArrow=none;html=1;elbow=vertical;rounded=0;exitX=1;exitY=0.5;exitDx=0;exitDy=0;entryX=0.691;entryY=0.999;entryDx=0;entryDy=0;entryPerimeter=0;" edge="1" parent="1" source="7Bm5uX8iUBSCOyA4L_OL-2" target="7Bm5uX8iUBSCOyA4L_OL-21">
          <mxGeometry width="50" height="100" relative="1" as="geometry">
            <mxPoint x="340.8" y="230" as="sourcePoint" />
            <mxPoint x="390.8" y="130" as="targetPoint" />
            <Array as="points">
              <mxPoint x="330" y="190" />
            </Array>
          </mxGeometry>
        </mxCell>
        <mxCell id="7Bm5uX8iUBSCOyA4L_OL-25" value="medicamentos " style="ellipse;shape=doubleEllipse;whiteSpace=wrap;html=1;fontSize=10;" vertex="1" parent="1">
          <mxGeometry x="400" y="80" width="80" height="45" as="geometry" />
        </mxCell>
        <mxCell id="7Bm5uX8iUBSCOyA4L_OL-26" value="" style="edgeStyle=isometricEdgeStyle;endArrow=none;html=1;elbow=vertical;rounded=0;exitX=1;exitY=0.75;exitDx=0;exitDy=0;entryX=0.5;entryY=1;entryDx=0;entryDy=0;" edge="1" parent="1" source="7Bm5uX8iUBSCOyA4L_OL-2" target="7Bm5uX8iUBSCOyA4L_OL-25">
          <mxGeometry width="50" height="100" relative="1" as="geometry">
            <mxPoint x="300" y="220" as="sourcePoint" />
            <mxPoint x="421" y="160" as="targetPoint" />
            <Array as="points">
              <mxPoint x="380" y="180" />
            </Array>
          </mxGeometry>
        </mxCell>
        <mxCell id="7Bm5uX8iUBSCOyA4L_OL-27" value="resultadosP" style="ellipse;shape=doubleEllipse;whiteSpace=wrap;html=1;fontSize=10;" vertex="1" parent="1">
          <mxGeometry x="370" y="10" width="80" height="45" as="geometry" />
        </mxCell>
        <mxCell id="7Bm5uX8iUBSCOyA4L_OL-28" value="" style="edgeStyle=isometricEdgeStyle;endArrow=none;html=1;elbow=vertical;rounded=0;exitX=0.999;exitY=0.879;exitDx=0;exitDy=0;entryX=0.758;entryY=0.909;entryDx=0;entryDy=0;entryPerimeter=0;exitPerimeter=0;" edge="1" parent="1" source="7Bm5uX8iUBSCOyA4L_OL-2" target="7Bm5uX8iUBSCOyA4L_OL-27">
          <mxGeometry width="50" height="100" relative="1" as="geometry">
            <mxPoint x="270" y="220" as="sourcePoint" />
            <mxPoint x="460" y="150" as="targetPoint" />
            <Array as="points">
              <mxPoint x="400" y="205" />
            </Array>
          </mxGeometry>
        </mxCell>
        <mxCell id="7Bm5uX8iUBSCOyA4L_OL-29" value="Médico" style="rounded=0;whiteSpace=wrap;html=1;" vertex="1" parent="1">
          <mxGeometry x="100" y="390" width="120" height="60" as="geometry" />
        </mxCell>
        <mxCell id="7Bm5uX8iUBSCOyA4L_OL-32" value="" style="endArrow=none;html=1;rounded=0;entryX=0.5;entryY=1;entryDx=0;entryDy=0;exitX=0.5;exitY=0;exitDx=0;exitDy=0;" edge="1" parent="1" source="7Bm5uX8iUBSCOyA4L_OL-29" target="7Bm5uX8iUBSCOyA4L_OL-2">
          <mxGeometry width="50" height="50" relative="1" as="geometry">
            <mxPoint x="140" y="380" as="sourcePoint" />
            <mxPoint x="190" y="330" as="targetPoint" />
          </mxGeometry>
        </mxCell>
        <mxCell id="7Bm5uX8iUBSCOyA4L_OL-33" value="ID" style="ellipse;whiteSpace=wrap;html=1;aspect=fixed;labelBackgroundColor=none;fontColor=#030303;fontStyle=4" vertex="1" parent="1">
          <mxGeometry x="20" y="425" width="30" height="30" as="geometry" />
        </mxCell>
        <mxCell id="7Bm5uX8iUBSCOyA4L_OL-34" value="" style="endArrow=none;html=1;rounded=0;entryX=0;entryY=0.5;entryDx=0;entryDy=0;exitX=1;exitY=0.5;exitDx=0;exitDy=0;" edge="1" parent="1" source="7Bm5uX8iUBSCOyA4L_OL-33" target="7Bm5uX8iUBSCOyA4L_OL-29">
          <mxGeometry width="50" height="50" relative="1" as="geometry">
            <mxPoint x="50" y="410" as="sourcePoint" />
            <mxPoint x="100" y="360" as="targetPoint" />
          </mxGeometry>
        </mxCell>
        <mxCell id="7Bm5uX8iUBSCOyA4L_OL-35" value="nombre" style="ellipse;whiteSpace=wrap;html=1;fontSize=10;" vertex="1" parent="1">
          <mxGeometry x="10" y="370" width="50" height="30" as="geometry" />
        </mxCell>
        <mxCell id="7Bm5uX8iUBSCOyA4L_OL-40" value="" style="endArrow=none;html=1;rounded=0;entryX=1;entryY=0.5;entryDx=0;entryDy=0;exitX=0.032;exitY=0.033;exitDx=0;exitDy=0;exitPerimeter=0;" edge="1" parent="1" source="7Bm5uX8iUBSCOyA4L_OL-29" target="7Bm5uX8iUBSCOyA4L_OL-35">
          <mxGeometry width="50" height="50" relative="1" as="geometry">
            <mxPoint x="220" y="390" as="sourcePoint" />
            <mxPoint x="270" y="340" as="targetPoint" />
          </mxGeometry>
        </mxCell>
        <mxCell id="7Bm5uX8iUBSCOyA4L_OL-41" value="" style="endArrow=none;html=1;rounded=0;entryX=0.544;entryY=1.048;entryDx=0;entryDy=0;entryPerimeter=0;exitX=0.5;exitY=0;exitDx=0;exitDy=0;" edge="1" parent="1" source="7Bm5uX8iUBSCOyA4L_OL-43" target="7Bm5uX8iUBSCOyA4L_OL-29">
          <mxGeometry width="50" height="50" relative="1" as="geometry">
            <mxPoint x="185" y="600" as="sourcePoint" />
            <mxPoint x="280" y="530" as="targetPoint" />
          </mxGeometry>
        </mxCell>
        <mxCell id="7Bm5uX8iUBSCOyA4L_OL-43" value="ISA" style="rhombus;whiteSpace=wrap;html=1;" vertex="1" parent="1">
          <mxGeometry x="150" y="600" width="80" height="80" as="geometry" />
        </mxCell>
        <mxCell id="7Bm5uX8iUBSCOyA4L_OL-44" value="Permanente" style="rounded=0;whiteSpace=wrap;html=1;" vertex="1" parent="1">
          <mxGeometry y="740" width="120" height="60" as="geometry" />
        </mxCell>
        <mxCell id="7Bm5uX8iUBSCOyA4L_OL-45" value="Profesor" style="rounded=0;whiteSpace=wrap;html=1;" vertex="1" parent="1">
          <mxGeometry x="140" y="740" width="120" height="60" as="geometry" />
        </mxCell>
        <mxCell id="7Bm5uX8iUBSCOyA4L_OL-46" value="algo" style="rounded=0;whiteSpace=wrap;html=1;" vertex="1" parent="1">
          <mxGeometry x="280" y="740" width="120" height="60" as="geometry" />
        </mxCell>
        <mxCell id="7Bm5uX8iUBSCOyA4L_OL-47" value="" style="endArrow=none;html=1;rounded=0;exitX=0.592;exitY=0;exitDx=0;exitDy=0;exitPerimeter=0;" edge="1" parent="1" source="7Bm5uX8iUBSCOyA4L_OL-44">
          <mxGeometry width="50" height="50" relative="1" as="geometry">
            <mxPoint x="120" y="710" as="sourcePoint" />
            <mxPoint x="170" y="660" as="targetPoint" />
          </mxGeometry>
        </mxCell>
        <mxCell id="7Bm5uX8iUBSCOyA4L_OL-48" value="" style="endArrow=none;html=1;rounded=0;exitX=0.586;exitY=0;exitDx=0;exitDy=0;exitPerimeter=0;entryX=1;entryY=1;entryDx=0;entryDy=0;" edge="1" parent="1" source="7Bm5uX8iUBSCOyA4L_OL-46" target="7Bm5uX8iUBSCOyA4L_OL-43">
          <mxGeometry width="50" height="50" relative="1" as="geometry">
            <mxPoint x="340" y="740" as="sourcePoint" />
            <mxPoint x="439" y="660" as="targetPoint" />
          </mxGeometry>
        </mxCell>
        <mxCell id="7Bm5uX8iUBSCOyA4L_OL-49" value="" style="endArrow=none;html=1;rounded=0;exitX=0.458;exitY=0.033;exitDx=0;exitDy=0;exitPerimeter=0;entryX=0.5;entryY=1;entryDx=0;entryDy=0;" edge="1" parent="1" source="7Bm5uX8iUBSCOyA4L_OL-45" target="7Bm5uX8iUBSCOyA4L_OL-43">
          <mxGeometry width="50" height="50" relative="1" as="geometry">
            <mxPoint x="330" y="770" as="sourcePoint" />
            <mxPoint x="190" y="690" as="targetPoint" />
          </mxGeometry>
        </mxCell>
        <mxCell id="7Bm5uX8iUBSCOyA4L_OL-50" value="teléfono" style="ellipse;whiteSpace=wrap;html=1;fontSize=10;" vertex="1" parent="1">
          <mxGeometry x="10" y="330" width="50" height="30" as="geometry" />
        </mxCell>
        <mxCell id="7Bm5uX8iUBSCOyA4L_OL-51" value="" style="endArrow=none;html=1;rounded=0;entryX=1;entryY=1;entryDx=0;entryDy=0;exitX=0.153;exitY=0;exitDx=0;exitDy=0;exitPerimeter=0;" edge="1" parent="1" source="7Bm5uX8iUBSCOyA4L_OL-29" target="7Bm5uX8iUBSCOyA4L_OL-50">
          <mxGeometry width="50" height="50" relative="1" as="geometry">
            <mxPoint x="150" y="390" as="sourcePoint" />
            <mxPoint x="96" y="353" as="targetPoint" />
          </mxGeometry>
        </mxCell>
        <mxCell id="7Bm5uX8iUBSCOyA4L_OL-54" value="Enfermera" style="rounded=0;whiteSpace=wrap;html=1;" vertex="1" parent="1">
          <mxGeometry x="540" y="420" width="120" height="60" as="geometry" />
        </mxCell>
        <mxCell id="7Bm5uX8iUBSCOyA4L_OL-55" value="ID" style="ellipse;whiteSpace=wrap;html=1;aspect=fixed;labelBackgroundColor=none;fontColor=#030303;fontStyle=4" vertex="1" parent="1">
          <mxGeometry x="460" y="420" width="30" height="30" as="geometry" />
        </mxCell>
        <mxCell id="7Bm5uX8iUBSCOyA4L_OL-57" value="" style="endArrow=none;html=1;rounded=0;entryX=0.002;entryY=0.436;entryDx=0;entryDy=0;entryPerimeter=0;exitX=1;exitY=0.5;exitDx=0;exitDy=0;" edge="1" parent="1" source="7Bm5uX8iUBSCOyA4L_OL-55" target="7Bm5uX8iUBSCOyA4L_OL-54">
          <mxGeometry width="50" height="50" relative="1" as="geometry">
            <mxPoint x="490" y="440" as="sourcePoint" />
            <mxPoint x="540" y="390" as="targetPoint" />
          </mxGeometry>
        </mxCell>
        <mxCell id="7Bm5uX8iUBSCOyA4L_OL-58" value="nombre" style="ellipse;whiteSpace=wrap;html=1;fontSize=10;" vertex="1" parent="1">
          <mxGeometry x="440" y="380" width="50" height="30" as="geometry" />
        </mxCell>
        <mxCell id="7Bm5uX8iUBSCOyA4L_OL-59" value="" style="endArrow=none;html=1;rounded=0;exitX=1;exitY=0.5;exitDx=0;exitDy=0;entryX=0;entryY=0;entryDx=0;entryDy=0;" edge="1" parent="1" source="7Bm5uX8iUBSCOyA4L_OL-58" target="7Bm5uX8iUBSCOyA4L_OL-54">
          <mxGeometry width="50" height="50" relative="1" as="geometry">
            <mxPoint x="550" y="350" as="sourcePoint" />
            <mxPoint x="600" y="300" as="targetPoint" />
          </mxGeometry>
        </mxCell>
        <mxCell id="7Bm5uX8iUBSCOyA4L_OL-60" value="teléfono" style="ellipse;whiteSpace=wrap;html=1;fontSize=10;" vertex="1" parent="1">
          <mxGeometry x="440" y="340" width="50" height="30" as="geometry" />
        </mxCell>
        <mxCell id="7Bm5uX8iUBSCOyA4L_OL-61" value="" style="endArrow=none;html=1;rounded=0;exitX=0.869;exitY=1.001;exitDx=0;exitDy=0;entryX=0;entryY=0;entryDx=0;entryDy=0;exitPerimeter=0;" edge="1" parent="1" source="7Bm5uX8iUBSCOyA4L_OL-60" target="7Bm5uX8iUBSCOyA4L_OL-54">
          <mxGeometry width="50" height="50" relative="1" as="geometry">
            <mxPoint x="500" y="365" as="sourcePoint" />
            <mxPoint x="560" y="380" as="targetPoint" />
          </mxGeometry>
        </mxCell>
        <mxCell id="7Bm5uX8iUBSCOyA4L_OL-62" value="CitaMédica" style="rounded=0;whiteSpace=wrap;html=1;" vertex="1" parent="1">
          <mxGeometry x="970" y="430" width="120" height="60" as="geometry" />
        </mxCell>
        <mxCell id="7Bm5uX8iUBSCOyA4L_OL-63" value="ID" style="ellipse;whiteSpace=wrap;html=1;aspect=fixed;labelBackgroundColor=none;fontColor=#030303;fontStyle=4" vertex="1" parent="1">
          <mxGeometry x="840" y="425" width="30" height="30" as="geometry" />
        </mxCell>
        <mxCell id="7Bm5uX8iUBSCOyA4L_OL-64" value="" style="endArrow=none;html=1;rounded=0;entryX=0;entryY=0.5;entryDx=0;entryDy=0;exitX=1;exitY=0.5;exitDx=0;exitDy=0;" edge="1" parent="1" source="7Bm5uX8iUBSCOyA4L_OL-63" target="7Bm5uX8iUBSCOyA4L_OL-62">
          <mxGeometry width="50" height="50" relative="1" as="geometry">
            <mxPoint x="890" y="440" as="sourcePoint" />
            <mxPoint x="940" y="390" as="targetPoint" />
          </mxGeometry>
        </mxCell>
        <mxCell id="7Bm5uX8iUBSCOyA4L_OL-65" value="fecha " style="ellipse;whiteSpace=wrap;html=1;fontSize=10;" vertex="1" parent="1">
          <mxGeometry x="840" y="360" width="50" height="30" as="geometry" />
        </mxCell>
        <mxCell id="7Bm5uX8iUBSCOyA4L_OL-66" value="" style="endArrow=none;html=1;rounded=0;entryX=0;entryY=0;entryDx=0;entryDy=0;exitX=1;exitY=1;exitDx=0;exitDy=0;" edge="1" parent="1" source="7Bm5uX8iUBSCOyA4L_OL-65" target="7Bm5uX8iUBSCOyA4L_OL-62">
          <mxGeometry width="50" height="50" relative="1" as="geometry">
            <mxPoint x="970" y="400" as="sourcePoint" />
            <mxPoint x="1020" y="350" as="targetPoint" />
          </mxGeometry>
        </mxCell>
        <mxCell id="7Bm5uX8iUBSCOyA4L_OL-67" value="motivo " style="ellipse;whiteSpace=wrap;html=1;fontSize=10;" vertex="1" parent="1">
          <mxGeometry x="830" y="310" width="50" height="30" as="geometry" />
        </mxCell>
        <mxCell id="7Bm5uX8iUBSCOyA4L_OL-68" value="" style="endArrow=none;html=1;rounded=0;entryX=0.25;entryY=0;entryDx=0;entryDy=0;exitX=1;exitY=0.5;exitDx=0;exitDy=0;" edge="1" parent="1" source="7Bm5uX8iUBSCOyA4L_OL-67" target="7Bm5uX8iUBSCOyA4L_OL-62">
          <mxGeometry width="50" height="50" relative="1" as="geometry">
            <mxPoint x="940" y="390" as="sourcePoint" />
            <mxPoint x="990" y="340" as="targetPoint" />
          </mxGeometry>
        </mxCell>
        <mxCell id="7Bm5uX8iUBSCOyA4L_OL-69" value="PruebaClínica" style="rounded=0;whiteSpace=wrap;html=1;" vertex="1" parent="1">
          <mxGeometry x="980" y="110" width="120" height="60" as="geometry" />
        </mxCell>
        <mxCell id="7Bm5uX8iUBSCOyA4L_OL-70" value="ID" style="ellipse;whiteSpace=wrap;html=1;aspect=fixed;labelBackgroundColor=none;fontColor=#030303;fontStyle=4" vertex="1" parent="1">
          <mxGeometry x="840" y="70" width="30" height="30" as="geometry" />
        </mxCell>
        <mxCell id="7Bm5uX8iUBSCOyA4L_OL-71" value="" style="endArrow=none;html=1;rounded=0;entryX=0;entryY=0.75;entryDx=0;entryDy=0;exitX=1;exitY=0.5;exitDx=0;exitDy=0;" edge="1" parent="1" source="7Bm5uX8iUBSCOyA4L_OL-70" target="7Bm5uX8iUBSCOyA4L_OL-69">
          <mxGeometry width="50" height="50" relative="1" as="geometry">
            <mxPoint x="890" y="150" as="sourcePoint" />
            <mxPoint x="940" y="100" as="targetPoint" />
          </mxGeometry>
        </mxCell>
        <mxCell id="7Bm5uX8iUBSCOyA4L_OL-73" value="tipo " style="ellipse;whiteSpace=wrap;html=1;fontSize=10;" vertex="1" parent="1">
          <mxGeometry x="830" y="115" width="50" height="30" as="geometry" />
        </mxCell>
        <mxCell id="7Bm5uX8iUBSCOyA4L_OL-74" value="" style="endArrow=none;html=1;rounded=0;exitX=0.979;exitY=0.413;exitDx=0;exitDy=0;exitPerimeter=0;entryX=0.013;entryY=0.889;entryDx=0;entryDy=0;entryPerimeter=0;" edge="1" parent="1" source="7Bm5uX8iUBSCOyA4L_OL-73" target="7Bm5uX8iUBSCOyA4L_OL-69">
          <mxGeometry width="50" height="50" relative="1" as="geometry">
            <mxPoint x="910" y="155" as="sourcePoint" />
            <mxPoint x="960" y="100" as="targetPoint" />
          </mxGeometry>
        </mxCell>
        <mxCell id="7Bm5uX8iUBSCOyA4L_OL-75" value="fecha" style="ellipse;whiteSpace=wrap;html=1;fontSize=10;" vertex="1" parent="1">
          <mxGeometry x="820" y="160" width="50" height="30" as="geometry" />
        </mxCell>
        <mxCell id="7Bm5uX8iUBSCOyA4L_OL-76" value="" style="endArrow=none;html=1;rounded=0;entryX=0.014;entryY=0.867;entryDx=0;entryDy=0;entryPerimeter=0;" edge="1" parent="1" source="7Bm5uX8iUBSCOyA4L_OL-75" target="7Bm5uX8iUBSCOyA4L_OL-69">
          <mxGeometry width="50" height="50" relative="1" as="geometry">
            <mxPoint x="900" y="200" as="sourcePoint" />
            <mxPoint x="950" y="150" as="targetPoint" />
          </mxGeometry>
        </mxCell>
        <mxCell id="7Bm5uX8iUBSCOyA4L_OL-77" value="resultados" style="ellipse;whiteSpace=wrap;html=1;fontSize=10;" vertex="1" parent="1">
          <mxGeometry x="830" y="200" width="50" height="30" as="geometry" />
        </mxCell>
        <mxCell id="7Bm5uX8iUBSCOyA4L_OL-78" value="" style="endArrow=none;html=1;rounded=0;entryX=0.057;entryY=0.996;entryDx=0;entryDy=0;entryPerimeter=0;exitX=0.925;exitY=0.242;exitDx=0;exitDy=0;exitPerimeter=0;" edge="1" parent="1" source="7Bm5uX8iUBSCOyA4L_OL-77" target="7Bm5uX8iUBSCOyA4L_OL-69">
          <mxGeometry width="50" height="50" relative="1" as="geometry">
            <mxPoint x="880" y="203.5" as="sourcePoint" />
            <mxPoint x="970" y="146.5" as="targetPoint" />
          </mxGeometry>
        </mxCell>
        <mxCell id="7Bm5uX8iUBSCOyA4L_OL-79" value="TratamientoMédico" style="rounded=0;whiteSpace=wrap;html=1;" vertex="1" parent="1">
          <mxGeometry x="935" y="600" width="120" height="60" as="geometry" />
        </mxCell>
        <mxCell id="7Bm5uX8iUBSCOyA4L_OL-80" value="ID" style="ellipse;whiteSpace=wrap;html=1;aspect=fixed;labelBackgroundColor=none;fontColor=#030303;fontStyle=4" vertex="1" parent="1">
          <mxGeometry x="860" y="650" width="30" height="30" as="geometry" />
        </mxCell>
        <mxCell id="7Bm5uX8iUBSCOyA4L_OL-81" value="" style="endArrow=none;html=1;rounded=0;entryX=1;entryY=0.5;entryDx=0;entryDy=0;exitX=0;exitY=0.75;exitDx=0;exitDy=0;" edge="1" parent="1" source="7Bm5uX8iUBSCOyA4L_OL-79" target="7Bm5uX8iUBSCOyA4L_OL-80">
          <mxGeometry width="50" height="50" relative="1" as="geometry">
            <mxPoint x="930" y="610" as="sourcePoint" />
            <mxPoint x="980" y="560" as="targetPoint" />
          </mxGeometry>
        </mxCell>
        <mxCell id="7Bm5uX8iUBSCOyA4L_OL-83" value="fecha " style="ellipse;whiteSpace=wrap;html=1;fontSize=10;" vertex="1" parent="1">
          <mxGeometry x="960" y="720" width="50" height="30" as="geometry" />
        </mxCell>
        <mxCell id="7Bm5uX8iUBSCOyA4L_OL-84" value="" style="endArrow=none;html=1;rounded=0;entryX=0.41;entryY=0.991;entryDx=0;entryDy=0;entryPerimeter=0;" edge="1" parent="1" source="7Bm5uX8iUBSCOyA4L_OL-83" target="7Bm5uX8iUBSCOyA4L_OL-79">
          <mxGeometry width="50" height="50" relative="1" as="geometry">
            <mxPoint x="970" y="700" as="sourcePoint" />
            <mxPoint x="1020" y="650" as="targetPoint" />
          </mxGeometry>
        </mxCell>
        <mxCell id="7Bm5uX8iUBSCOyA4L_OL-85" value="inicio" style="ellipse;whiteSpace=wrap;html=1;fontSize=10;" vertex="1" parent="1">
          <mxGeometry x="930" y="780" width="50" height="30" as="geometry" />
        </mxCell>
        <mxCell id="7Bm5uX8iUBSCOyA4L_OL-86" value="fin" style="ellipse;whiteSpace=wrap;html=1;fontSize=10;" vertex="1" parent="1">
          <mxGeometry x="1005" y="780" width="50" height="30" as="geometry" />
        </mxCell>
        <mxCell id="7Bm5uX8iUBSCOyA4L_OL-87" value="" style="endArrow=none;html=1;rounded=0;entryX=0;entryY=1;entryDx=0;entryDy=0;exitX=0.381;exitY=-0.03;exitDx=0;exitDy=0;exitPerimeter=0;" edge="1" parent="1" source="7Bm5uX8iUBSCOyA4L_OL-85" target="7Bm5uX8iUBSCOyA4L_OL-83">
          <mxGeometry width="50" height="50" relative="1" as="geometry">
            <mxPoint x="900" y="760" as="sourcePoint" />
            <mxPoint x="950" y="710" as="targetPoint" />
          </mxGeometry>
        </mxCell>
        <mxCell id="7Bm5uX8iUBSCOyA4L_OL-88" value="" style="endArrow=none;html=1;rounded=0;entryX=1;entryY=1;entryDx=0;entryDy=0;exitX=0.5;exitY=0;exitDx=0;exitDy=0;" edge="1" parent="1" source="7Bm5uX8iUBSCOyA4L_OL-86" target="7Bm5uX8iUBSCOyA4L_OL-83">
          <mxGeometry width="50" height="50" relative="1" as="geometry">
            <mxPoint x="959" y="789" as="sourcePoint" />
            <mxPoint x="987" y="745" as="targetPoint" />
          </mxGeometry>
        </mxCell>
        <mxCell id="7Bm5uX8iUBSCOyA4L_OL-91" value="" style="endArrow=none;html=1;rounded=0;entryX=0.114;entryY=0.532;entryDx=0;entryDy=0;exitX=0.992;exitY=0.606;exitDx=0;exitDy=0;entryPerimeter=0;exitPerimeter=0;" edge="1" parent="1" source="7Bm5uX8iUBSCOyA4L_OL-79" target="7Bm5uX8iUBSCOyA4L_OL-97">
          <mxGeometry width="50" height="50" relative="1" as="geometry">
            <mxPoint x="930" y="580" as="sourcePoint" />
            <mxPoint x="1140.0000000000014" y="620" as="targetPoint" />
          </mxGeometry>
        </mxCell>
        <mxCell id="7Bm5uX8iUBSCOyA4L_OL-92" value="dosis" style="ellipse;whiteSpace=wrap;html=1;fontSize=10;" vertex="1" parent="1">
          <mxGeometry x="1340" y="500" width="50" height="30" as="geometry" />
        </mxCell>
        <mxCell id="7Bm5uX8iUBSCOyA4L_OL-93" value="" style="endArrow=none;html=1;rounded=0;exitX=0.5;exitY=1;exitDx=0;exitDy=0;" edge="1" parent="1" source="7Bm5uX8iUBSCOyA4L_OL-92" target="7Bm5uX8iUBSCOyA4L_OL-94">
          <mxGeometry width="50" height="50" relative="1" as="geometry">
            <mxPoint x="1370" y="540" as="sourcePoint" />
            <mxPoint x="1180" y="642.5" as="targetPoint" />
          </mxGeometry>
        </mxCell>
        <mxCell id="7Bm5uX8iUBSCOyA4L_OL-94" value="Medicamento" style="rounded=0;whiteSpace=wrap;html=1;" vertex="1" parent="1">
          <mxGeometry x="1320" y="605" width="120" height="60" as="geometry" />
        </mxCell>
        <mxCell id="7Bm5uX8iUBSCOyA4L_OL-95" value="id" style="ellipse;whiteSpace=wrap;html=1;fontSize=10;fontStyle=4" vertex="1" parent="1">
          <mxGeometry x="1300" y="535" width="50" height="30" as="geometry" />
        </mxCell>
        <mxCell id="7Bm5uX8iUBSCOyA4L_OL-96" value="" style="endArrow=none;html=1;rounded=0;entryX=0.5;entryY=1;entryDx=0;entryDy=0;exitX=0.25;exitY=0;exitDx=0;exitDy=0;" edge="1" parent="1" source="7Bm5uX8iUBSCOyA4L_OL-94" target="7Bm5uX8iUBSCOyA4L_OL-95">
          <mxGeometry width="50" height="50" relative="1" as="geometry">
            <mxPoint x="1250" y="630" as="sourcePoint" />
            <mxPoint x="1300" y="580" as="targetPoint" />
          </mxGeometry>
        </mxCell>
        <mxCell id="7Bm5uX8iUBSCOyA4L_OL-97" value="" style="rhombus;whiteSpace=wrap;html=1;" vertex="1" parent="1">
          <mxGeometry x="1150" y="610" width="50" height="50" as="geometry" />
        </mxCell>
        <mxCell id="7Bm5uX8iUBSCOyA4L_OL-98" value="" style="endArrow=none;html=1;rounded=0;entryX=0;entryY=0.5;entryDx=0;entryDy=0;exitX=1;exitY=0.5;exitDx=0;exitDy=0;" edge="1" parent="1" source="7Bm5uX8iUBSCOyA4L_OL-97" target="7Bm5uX8iUBSCOyA4L_OL-94">
          <mxGeometry width="50" height="50" relative="1" as="geometry">
            <mxPoint x="1190" y="619" as="sourcePoint" />
            <mxPoint x="1286" y="621" as="targetPoint" />
          </mxGeometry>
        </mxCell>
        <mxCell id="7Bm5uX8iUBSCOyA4L_OL-99" value="(1,N)" style="text;html=1;align=center;verticalAlign=middle;resizable=0;points=[];autosize=1;strokeColor=none;fillColor=none;" vertex="1" parent="1">
          <mxGeometry x="1050" y="598" width="50" height="30" as="geometry" />
        </mxCell>
        <mxCell id="7Bm5uX8iUBSCOyA4L_OL-100" value="(1,N)" style="text;html=1;align=center;verticalAlign=middle;resizable=0;points=[];autosize=1;strokeColor=none;fillColor=none;" vertex="1" parent="1">
          <mxGeometry x="1270" y="600" width="50" height="30" as="geometry" />
        </mxCell>
        <mxCell id="7Bm5uX8iUBSCOyA4L_OL-101" value="RecursoHospitalario" style="rounded=0;whiteSpace=wrap;html=1;" vertex="1" parent="1">
          <mxGeometry x="925" y="900" width="120" height="60" as="geometry" />
        </mxCell>
        <mxCell id="7Bm5uX8iUBSCOyA4L_OL-102" value="id" style="ellipse;whiteSpace=wrap;html=1;fontSize=10;fontStyle=4" vertex="1" parent="1">
          <mxGeometry x="900" y="1050" width="50" height="30" as="geometry" />
        </mxCell>
        <mxCell id="7Bm5uX8iUBSCOyA4L_OL-103" value="" style="endArrow=none;html=1;rounded=0;exitX=0.5;exitY=0;exitDx=0;exitDy=0;" edge="1" parent="1" source="7Bm5uX8iUBSCOyA4L_OL-102" target="7Bm5uX8iUBSCOyA4L_OL-101">
          <mxGeometry width="50" height="50" relative="1" as="geometry">
            <mxPoint x="900" y="1030" as="sourcePoint" />
            <mxPoint x="940" y="990" as="targetPoint" />
          </mxGeometry>
        </mxCell>
        <mxCell id="7Bm5uX8iUBSCOyA4L_OL-105" value="fin" style="ellipse;whiteSpace=wrap;html=1;fontSize=10;" vertex="1" parent="1">
          <mxGeometry x="960" y="1050" width="50" height="30" as="geometry" />
        </mxCell>
        <mxCell id="7Bm5uX8iUBSCOyA4L_OL-106" value="" style="endArrow=none;html=1;rounded=0;exitX=0.5;exitY=0;exitDx=0;exitDy=0;entryX=0.5;entryY=1;entryDx=0;entryDy=0;" edge="1" parent="1" source="7Bm5uX8iUBSCOyA4L_OL-105" target="7Bm5uX8iUBSCOyA4L_OL-101">
          <mxGeometry width="50" height="50" relative="1" as="geometry">
            <mxPoint x="970" y="1070" as="sourcePoint" />
            <mxPoint x="1015" y="980" as="targetPoint" />
          </mxGeometry>
        </mxCell>
      </root>
    </mxGraphModel>
  </diagram>
</mxfile>
